<?xml version="1.0" encoding="UTF-8"?>
<svg xmlns="http://www.w3.org/2000/svg" width="1080" height="1920" viewBox="0 0 1080 1920" role="img">

        <defs>
          <marker id="arrow" markerWidth="10" markerHeight="10" refX="7" refY="3" orient="auto" markerUnits="strokeWidth">
            <path d="M0,0 L0,6 L8,3 z" fill="#128B86" />
          </marker>
          <filter id="softShadow" x="-20%" y="-20%" width="140%" height="140%">
            <feDropShadow dx="0" dy="3" stdDeviation="4" flood-color="#000000" flood-opacity="0.08"/>
          </filter>
        </defs>
<rect width="100%" height="100%" fill="#FFFFFF"/>
<text x="540.0" y="70" font-family="Arial, Helvetica, sans-serif" font-size="46" font-weight="700" fill="#083B7A" text-anchor="middle">Hybrid ETES + Gas Boiler:</text><text x="540.0" y="120" font-family="Arial, Helvetica, sans-serif" font-size="46" font-weight="700" fill="#083B7A" text-anchor="middle">Sequential Market Strategy</text><circle cx="50" cy="220" r="35" fill="#083B7A"/><text x="50" y="232" font-family="Arial, Helvetica, sans-serif" font-size="36" font-weight="700" fill="#FFFFFF" text-anchor="middle">1</text><rect x="100" y="170" width="650" height="185" rx="18" fill="#FFFFFF" stroke="#B9D8F4" stroke-width="2"/><rect x="100" y="170" width="145" height="185" rx="18" fill="#EAF4FF" stroke="none" stroke-width="0"/><circle cx="175" cy="262.5" r="54" fill="#FFFFFF"/><path d="M147.64,284.1 L147.64,258.9 L167.8,269.7 L167.8,255.3 L187.96,268.26 L187.96,237.3 L200.2,237.3 L200.2,284.1 Z" fill="none" stroke="#083B7A" stroke-width="5" stroke-linejoin="round"/><rect x="154.84" y="269.7" width="7.199999999999999" height="7.199999999999999" rx="1" fill="none" stroke="#083B7A" stroke-width="3"/><rect x="170.68" y="269.7" width="7.199999999999999" height="7.199999999999999" rx="1" fill="none" stroke="#083B7A" stroke-width="3"/><rect x="186.52" y="269.7" width="7.199999999999999" height="7.199999999999999" rx="1" fill="none" stroke="#083B7A" stroke-width="3"/><text x="265" y="212" font-family="Arial, Helvetica, sans-serif" font-size="25" font-weight="700" fill="#083B7A" text-anchor="start">Inputs and plant state</text><text x="265" y="266" font-family="Arial, Helvetica, sans-serif" font-size="18" font-weight="400" fill="#0B1F44" text-anchor="start">• Heat demand profile (15-min)</text><text x="265" y="290" font-family="Arial, Helvetica, sans-serif" font-size="18" font-weight="400" fill="#0B1F44" text-anchor="start">• DA, ID3, aFRR energy and capacity prices</text><text x="265" y="314" font-family="Arial, Helvetica, sans-serif" font-size="18" font-weight="400" fill="#0B1F44" text-anchor="start">• Gas price, ETES parameters, boiler efficiency</text><text x="265" y="338" font-family="Arial, Helvetica, sans-serif" font-size="18" font-weight="400" fill="#0B1F44" text-anchor="start">• Previous ETES state of charge</text><line x1="425.0" y1="357" x2="425.0" y2="377" stroke="#128B86" stroke-width="5" stroke-linecap="round" marker-end="url(#arrow)"/><circle cx="50" cy="430" r="35" fill="#083B7A"/><text x="50" y="442" font-family="Arial, Helvetica, sans-serif" font-size="36" font-weight="700" fill="#FFFFFF" text-anchor="middle">2</text><rect x="100" y="380" width="650" height="185" rx="18" fill="#FFFFFF" stroke="#B9D8F4" stroke-width="2"/><rect x="100" y="380" width="145" height="185" rx="18" fill="#E7F7F5" stroke="none" stroke-width="0"/><circle cx="175" cy="472.5" r="54" fill="#FFFFFF"/><path d="M175,442.26 L202.36,454.5 L196.6,490.5 L175,504.9 L153.4,490.5 L147.64,454.5 Z" fill="none" stroke="#128B86" stroke-width="5" stroke-linejoin="round"/><polyline points="162.04,472.5 172.12,484.02 190.84,460.98" fill="none" stroke="#128B86" stroke-width="5" stroke-linecap="round" stroke-linejoin="round"/><text x="265" y="422" font-family="Arial, Helvetica, sans-serif" font-size="24" font-weight="700" fill="#0B6F6B" text-anchor="start">Optional aFRR down capacity</text><text x="265" y="453" font-family="Arial, Helvetica, sans-serif" font-size="24" font-weight="700" fill="#0B6F6B" text-anchor="start">(4-hour blocks)</text><text x="265" y="485" font-family="Arial, Helvetica, sans-serif" font-size="18" font-weight="400" fill="#0B1F44" text-anchor="start">• No-activation profitability check</text><text x="265" y="509" font-family="Arial, Helvetica, sans-serif" font-size="18" font-weight="400" fill="#0B1F44" text-anchor="start">• Activation-period energy price safety check</text><text x="265" y="533" font-family="Arial, Helvetica, sans-serif" font-size="18" font-weight="400" fill="#0B1F44" text-anchor="start">• ETES charging and storage headroom check</text><text x="265" y="557" font-family="Arial, Helvetica, sans-serif" font-size="18" font-weight="400" fill="#0B1F44" text-anchor="start">• Output: reserved capacity or zero</text><line x1="425.0" y1="567" x2="425.0" y2="587" stroke="#128B86" stroke-width="5" stroke-linecap="round" marker-end="url(#arrow)"/><circle cx="50" cy="640" r="35" fill="#083B7A"/><text x="50" y="652" font-family="Arial, Helvetica, sans-serif" font-size="36" font-weight="700" fill="#FFFFFF" text-anchor="middle">3</text><rect x="100" y="590" width="650" height="185" rx="18" fill="#FFFFFF" stroke="#B9D8F4" stroke-width="2"/><rect x="100" y="590" width="145" height="185" rx="18" fill="#EAF4FF" stroke="none" stroke-width="0"/><circle cx="175" cy="682.5" r="54" fill="#FFFFFF"/><rect x="146.2" y="660.9" width="57.599999999999994" height="46.8" rx="6" fill="none" stroke="#083B7A" stroke-width="5"/><line x1="146.2" y1="673.86" x2="203.8" y2="673.86" stroke="#083B7A" stroke-width="5" stroke-linecap="round"/><rect x="157.0" y="683.22" width="7.199999999999999" height="7.199999999999999" rx="1" fill="#083B7A" stroke="#083B7A" stroke-width="1"/><rect x="157.0" y="696.18" width="7.199999999999999" height="7.199999999999999" rx="1" fill="#083B7A" stroke="#083B7A" stroke-width="1"/><rect x="171.4" y="683.22" width="7.199999999999999" height="7.199999999999999" rx="1" fill="#083B7A" stroke="#083B7A" stroke-width="1"/><rect x="171.4" y="696.18" width="7.199999999999999" height="7.199999999999999" rx="1" fill="#083B7A" stroke="#083B7A" stroke-width="1"/><rect x="185.8" y="683.22" width="7.199999999999999" height="7.199999999999999" rx="1" fill="#083B7A" stroke="#083B7A" stroke-width="1"/><rect x="185.8" y="696.18" width="7.199999999999999" height="7.199999999999999" rx="1" fill="#083B7A" stroke="#083B7A" stroke-width="1"/><text x="265" y="632" font-family="Arial, Helvetica, sans-serif" font-size="25" font-weight="700" fill="#083B7A" text-anchor="start">Day-Ahead procurement</text><text x="265" y="686" font-family="Arial, Helvetica, sans-serif" font-size="18" font-weight="400" fill="#0B1F44" text-anchor="start">• Compute gas-based electricity benchmark</text><text x="265" y="710" font-family="Arial, Helvetica, sans-serif" font-size="18" font-weight="400" fill="#0B1F44" text-anchor="start">• Buy electricity if DA is below benchmark</text><text x="265" y="734" font-family="Arial, Helvetica, sans-serif" font-size="18" font-weight="400" fill="#0B1F44" text-anchor="start">• Respect reserved aFRR capacity headroom</text><text x="265" y="758" font-family="Arial, Helvetica, sans-serif" font-size="18" font-weight="400" fill="#0B1F44" text-anchor="start">• Output: fixed DA electricity position</text><line x1="425.0" y1="777" x2="425.0" y2="797" stroke="#128B86" stroke-width="5" stroke-linecap="round" marker-end="url(#arrow)"/><circle cx="50" cy="850" r="35" fill="#083B7A"/><text x="50" y="862" font-family="Arial, Helvetica, sans-serif" font-size="36" font-weight="700" fill="#FFFFFF" text-anchor="middle">4</text><rect x="100" y="800" width="650" height="185" rx="18" fill="#FFFFFF" stroke="#B9D8F4" stroke-width="2"/><rect x="100" y="800" width="145" height="185" rx="18" fill="#E7F7F5" stroke="none" stroke-width="0"/><circle cx="175" cy="892.5" r="54" fill="#FFFFFF"/><polyline points="146.2,899.7 162.04,883.86 175,892.5 187.96,875.22 203.8,885.3" fill="none" stroke="#128B86" stroke-width="5" stroke-linecap="round" stroke-linejoin="round"/><line x1="143.32" y1="916.98" x2="206.68" y2="916.98" stroke="#128B86" stroke-width="4" stroke-linecap="round"/><text x="265" y="842" font-family="Arial, Helvetica, sans-serif" font-size="25" font-weight="700" fill="#0B6F6B" text-anchor="start">Intraday Continuous adjustment</text><text x="265" y="873" font-family="Arial, Helvetica, sans-serif" font-size="25" font-weight="700" fill="#0B6F6B" text-anchor="start">(ID3 proxy)</text><text x="265" y="905" font-family="Arial, Helvetica, sans-serif" font-size="18" font-weight="400" fill="#0B1F44" text-anchor="start">• Keep DA position as baseline</text><text x="265" y="929" font-family="Arial, Helvetica, sans-serif" font-size="18" font-weight="400" fill="#0B1F44" text-anchor="start">• Buy extra when ID3 is cheap</text><text x="265" y="953" font-family="Arial, Helvetica, sans-serif" font-size="18" font-weight="400" fill="#0B1F44" text-anchor="start">• Sell/reduce DA when ID3 is expensive</text><text x="265" y="977" font-family="Arial, Helvetica, sans-serif" font-size="18" font-weight="400" fill="#0B1F44" text-anchor="start">• Output: final planned electricity position</text><line x1="425.0" y1="987" x2="425.0" y2="1007" stroke="#128B86" stroke-width="5" stroke-linecap="round" marker-end="url(#arrow)"/><circle cx="50" cy="1060" r="35" fill="#083B7A"/><text x="50" y="1072" font-family="Arial, Helvetica, sans-serif" font-size="36" font-weight="700" fill="#FFFFFF" text-anchor="middle">5</text><rect x="100" y="1010" width="650" height="185" rx="18" fill="#FFFFFF" stroke="#B9D8F4" stroke-width="2"/><rect x="100" y="1010" width="145" height="185" rx="18" fill="#EAF4FF" stroke="none" stroke-width="0"/><circle cx="175" cy="1102.5" r="54" fill="#FFFFFF"/><polyline points="142.6,1102.5 157.0,1102.5 165.64,1082.34 175,1122.66 184.36,1095.3 196.6,1102.5 207.4,1102.5" fill="none" stroke="#083B7A" stroke-width="6" stroke-linecap="round" stroke-linejoin="round"/><text x="265" y="1052" font-family="Arial, Helvetica, sans-serif" font-size="25" font-weight="700" fill="#083B7A" text-anchor="start">aFRR down energy stage</text><text x="265" y="1083" font-family="Arial, Helvetica, sans-serif" font-size="25" font-weight="700" fill="#083B7A" text-anchor="start">(15-min)</text><text x="265" y="1115" font-family="Arial, Helvetica, sans-serif" font-size="18" font-weight="400" fill="#0B1F44" text-anchor="start">• Capacity enabled: activation is capacity-</text><text x="265" y="1139" font-family="Arial, Helvetica, sans-serif" font-size="18" font-weight="400" fill="#0B1F44" text-anchor="start">  backed</text><text x="265" y="1163" font-family="Arial, Helvetica, sans-serif" font-size="18" font-weight="400" fill="#0B1F44" text-anchor="start">• Capacity disabled: free/proxy energy logic</text><text x="265" y="1187" font-family="Arial, Helvetica, sans-serif" font-size="18" font-weight="400" fill="#0B1F44" text-anchor="start">• Limited by reserved capacity, system</text><text x="265" y="1211" font-family="Arial, Helvetica, sans-serif" font-size="18" font-weight="400" fill="#0B1F44" text-anchor="start">  activation and useful heat cap</text><text x="265" y="1235" font-family="Arial, Helvetica, sans-serif" font-size="18" font-weight="400" fill="#0B1F44" text-anchor="start">• Output: activated energy and actual</text><text x="265" y="1259" font-family="Arial, Helvetica, sans-serif" font-size="18" font-weight="400" fill="#0B1F44" text-anchor="start">  electricity consumption</text><line x1="425.0" y1="1197" x2="425.0" y2="1217" stroke="#128B86" stroke-width="5" stroke-linecap="round" marker-end="url(#arrow)"/><circle cx="50" cy="1270" r="35" fill="#083B7A"/><text x="50" y="1282" font-family="Arial, Helvetica, sans-serif" font-size="36" font-weight="700" fill="#FFFFFF" text-anchor="middle">6</text><rect x="100" y="1220" width="650" height="185" rx="18" fill="#FFFFFF" stroke="#B9D8F4" stroke-width="2"/><rect x="100" y="1220" width="145" height="185" rx="18" fill="#E7F7F5" stroke="none" stroke-width="0"/><circle cx="175" cy="1312.5" r="54" fill="#FFFFFF"/><text x="175" y="1323.3" font-family="Arial, Helvetica, sans-serif" font-size="50" font-weight="700" fill="#128B86" text-anchor="middle">€</text><text x="265" y="1262" font-family="Arial, Helvetica, sans-serif" font-size="25" font-weight="700" fill="#0B6F6B" text-anchor="start">Final dispatch and accounting</text><text x="265" y="1316" font-family="Arial, Helvetica, sans-serif" font-size="18" font-weight="400" fill="#0B1F44" text-anchor="start">• Final ETES charge, discharge and SoC</text><text x="265" y="1340" font-family="Arial, Helvetica, sans-serif" font-size="18" font-weight="400" fill="#0B1F44" text-anchor="start">• Gas boiler heat production and heat coverage</text><text x="265" y="1364" font-family="Arial, Helvetica, sans-serif" font-size="18" font-weight="400" fill="#0B1F44" text-anchor="start">• DA cost, IDC cashflow, aFRR energy cost</text><text x="265" y="1388" font-family="Arial, Helvetica, sans-serif" font-size="18" font-weight="400" fill="#0B1F44" text-anchor="start">• aFRR capacity revenue and net operating cost</text><rect x="775" y="170" width="260" height="1235" rx="22" fill="#FFFFFF" stroke="#128B86" stroke-width="2"/><rect x="775" y="170" width="260" height="62" rx="22" fill="#128B86" stroke="#128B86" stroke-width="0"/><text x="905.0" y="211" font-family="Arial, Helvetica, sans-serif" font-size="28" font-weight="700" fill="#FFFFFF" text-anchor="middle">Interpretation</text><circle cx="820" cy="275" r="33" fill="#E7F7F5"/><text x="820" y="287" font-family="Arial, Helvetica, sans-serif" font-size="28" font-weight="700" fill="#0B6F6B" text-anchor="middle">◎</text><text x="863" y="277" font-family="Arial, Helvetica, sans-serif" font-size="22" font-weight="700" fill="#0B6F6B" text-anchor="start">Goal</text><text x="863" y="307" font-family="Arial, Helvetica, sans-serif" font-size="15" font-weight="400" fill="#0B1F44">Maximise total margin by</text><text x="863" y="327" font-family="Arial, Helvetica, sans-serif" font-size="15" font-weight="400" fill="#0B1F44">combining aFRR, energy</text><text x="863" y="347" font-family="Arial, Helvetica, sans-serif" font-size="15" font-weight="400" fill="#0B1F44">markets and plant</text><text x="863" y="367" font-family="Arial, Helvetica, sans-serif" font-size="15" font-weight="400" fill="#0B1F44">flexibility.</text><line x1="803" y1="397" x2="1007" y2="397" stroke="#99D6D2" stroke-width="2" stroke-linecap="round"/><circle cx="820" cy="430" r="33" fill="#E7F7F5"/><text x="820" y="442" font-family="Arial, Helvetica, sans-serif" font-size="28" font-weight="700" fill="#0B6F6B" text-anchor="middle">⚖</text><text x="863" y="432" font-family="Arial, Helvetica, sans-serif" font-size="22" font-weight="700" fill="#0B6F6B" text-anchor="start">Trade-off</text><text x="863" y="462" font-family="Arial, Helvetica, sans-serif" font-size="15" font-weight="400" fill="#0B1F44">Capacity revenue vs.</text><text x="863" y="482" font-family="Arial, Helvetica, sans-serif" font-size="15" font-weight="400" fill="#0B1F44">flexibility commitment</text><text x="863" y="502" font-family="Arial, Helvetica, sans-serif" font-size="15" font-weight="400" fill="#0B1F44">and opportunity cost.</text><line x1="803" y1="552" x2="1007" y2="552" stroke="#99D6D2" stroke-width="2" stroke-linecap="round"/><circle cx="820" cy="585" r="33" fill="#E7F7F5"/><text x="820" y="597" font-family="Arial, Helvetica, sans-serif" font-size="28" font-weight="700" fill="#0B6F6B" text-anchor="middle">⏱</text><text x="863" y="587" font-family="Arial, Helvetica, sans-serif" font-size="22" font-weight="700" fill="#0B6F6B" text-anchor="start">Time hierarchy</text><text x="863" y="617" font-family="Arial, Helvetica, sans-serif" font-size="15" font-weight="400" fill="#0B1F44">Longer-term blocks first,</text><text x="863" y="637" font-family="Arial, Helvetica, sans-serif" font-size="15" font-weight="400" fill="#0B1F44">then shorter-term ID3 and</text><text x="863" y="657" font-family="Arial, Helvetica, sans-serif" font-size="15" font-weight="400" fill="#0B1F44">15-min adjustments.</text><line x1="803" y1="707" x2="1007" y2="707" stroke="#99D6D2" stroke-width="2" stroke-linecap="round"/><circle cx="820" cy="740" r="33" fill="#E7F7F5"/><text x="820" y="752" font-family="Arial, Helvetica, sans-serif" font-size="28" font-weight="700" fill="#0B6F6B" text-anchor="middle">✓</text><text x="863" y="742" font-family="Arial, Helvetica, sans-serif" font-size="22" font-weight="700" fill="#0B6F6B" text-anchor="start">Risk control</text><text x="863" y="772" font-family="Arial, Helvetica, sans-serif" font-size="15" font-weight="400" fill="#0B1F44">Useful-heat and storage</text><text x="863" y="792" font-family="Arial, Helvetica, sans-serif" font-size="15" font-weight="400" fill="#0B1F44">caps avoid artificial</text><text x="863" y="812" font-family="Arial, Helvetica, sans-serif" font-size="15" font-weight="400" fill="#0B1F44">dumping.</text><line x1="803" y1="862" x2="1007" y2="862" stroke="#99D6D2" stroke-width="2" stroke-linecap="round"/><circle cx="820" cy="895" r="33" fill="#E7F7F5"/><text x="820" y="907" font-family="Arial, Helvetica, sans-serif" font-size="28" font-weight="700" fill="#0B6F6B" text-anchor="middle">↗</text><text x="863" y="897" font-family="Arial, Helvetica, sans-serif" font-size="22" font-weight="700" fill="#0B6F6B" text-anchor="start">Outcome</text><text x="863" y="927" font-family="Arial, Helvetica, sans-serif" font-size="15" font-weight="400" fill="#0B1F44">Feasible dispatch, market</text><text x="863" y="947" font-family="Arial, Helvetica, sans-serif" font-size="15" font-weight="400" fill="#0B1F44">settlement and net</text><text x="863" y="967" font-family="Arial, Helvetica, sans-serif" font-size="15" font-weight="400" fill="#0B1F44">operating cost.</text><rect x="35" y="1685" width="1010" height="190" rx="22" fill="#F7FBFF" stroke="#B9D8F4" stroke-width="2"/><text x="540.0" y="1727" font-family="Arial, Helvetica, sans-serif" font-size="26" font-weight="700" fill="#083B7A" text-anchor="middle">Summary: the sequential decision flow</text><circle cx="110" cy="1768" r="20" fill="#083B7A"/><text x="110" y="1775" font-family="Arial, Helvetica, sans-serif" font-size="20" font-weight="700" fill="#FFFFFF" text-anchor="middle">1</text><path d="M96.7,1820.5 L96.7,1808.25 L106.5,1813.5 L106.5,1806.5 L116.3,1812.8 L116.3,1797.75 L122.25,1797.75 L122.25,1820.5 Z" fill="none" stroke="#083B7A" stroke-width="5" stroke-linejoin="round"/><rect x="100.2" y="1813.5" width="3.5" height="3.5" rx="1" fill="none" stroke="#083B7A" stroke-width="3"/><rect x="107.9" y="1813.5" width="3.5" height="3.5" rx="1" fill="none" stroke="#083B7A" stroke-width="3"/><rect x="115.60000000000001" y="1813.5" width="3.5" height="3.5" rx="1" fill="none" stroke="#083B7A" stroke-width="3"/><text x="110" y="1857" font-family="Arial, Helvetica, sans-serif" font-size="17" font-weight="700" fill="#0B1F44" text-anchor="middle">Inputs</text><line x1="165" y1="1813" x2="225" y2="1813" stroke="#128B86" stroke-width="5" stroke-linecap="round" marker-end="url(#arrow)"/><circle cx="280" cy="1768" r="20" fill="#083B7A"/><text x="280" y="1775" font-family="Arial, Helvetica, sans-serif" font-size="20" font-weight="700" fill="#FFFFFF" text-anchor="middle">2</text><path d="M280,1795.3 L293.3,1801.25 L290.5,1818.75 L280,1825.75 L269.5,1818.75 L266.7,1801.25 Z" fill="none" stroke="#128B86" stroke-width="5" stroke-linejoin="round"/><polyline points="273.7,1810 278.6,1815.6 287.7,1804.4" fill="none" stroke="#128B86" stroke-width="5" stroke-linecap="round" stroke-linejoin="round"/><text x="280" y="1857" font-family="Arial, Helvetica, sans-serif" font-size="17" font-weight="700" fill="#0B1F44" text-anchor="middle">aFRR cap.</text><line x1="335" y1="1813" x2="390" y2="1813" stroke="#128B86" stroke-width="5" stroke-linecap="round" marker-end="url(#arrow)"/><circle cx="445" cy="1768" r="20" fill="#083B7A"/><text x="445" y="1775" font-family="Arial, Helvetica, sans-serif" font-size="20" font-weight="700" fill="#FFFFFF" text-anchor="middle">3</text><rect x="431.0" y="1799.5" width="28.0" height="22.75" rx="6" fill="none" stroke="#083B7A" stroke-width="5"/><line x1="431.0" y1="1805.8" x2="459.0" y2="1805.8" stroke="#083B7A" stroke-width="5" stroke-linecap="round"/><rect x="436.25" y="1810.35" width="3.5" height="3.5" rx="1" fill="#083B7A" stroke="#083B7A" stroke-width="1"/><rect x="436.25" y="1816.65" width="3.5" height="3.5" rx="1" fill="#083B7A" stroke="#083B7A" stroke-width="1"/><rect x="443.25" y="1810.35" width="3.5" height="3.5" rx="1" fill="#083B7A" stroke="#083B7A" stroke-width="1"/><rect x="443.25" y="1816.65" width="3.5" height="3.5" rx="1" fill="#083B7A" stroke="#083B7A" stroke-width="1"/><rect x="450.25" y="1810.35" width="3.5" height="3.5" rx="1" fill="#083B7A" stroke="#083B7A" stroke-width="1"/><rect x="450.25" y="1816.65" width="3.5" height="3.5" rx="1" fill="#083B7A" stroke="#083B7A" stroke-width="1"/><text x="445" y="1857" font-family="Arial, Helvetica, sans-serif" font-size="17" font-weight="700" fill="#0B1F44" text-anchor="middle">DA</text><line x1="500" y1="1813" x2="555" y2="1813" stroke="#128B86" stroke-width="5" stroke-linecap="round" marker-end="url(#arrow)"/><circle cx="610" cy="1768" r="20" fill="#083B7A"/><text x="610" y="1775" font-family="Arial, Helvetica, sans-serif" font-size="20" font-weight="700" fill="#FFFFFF" text-anchor="middle">4</text><polyline points="596.0,1813.5 603.7,1805.8 610,1810 616.3,1801.6 624.0,1806.5" fill="none" stroke="#128B86" stroke-width="5" stroke-linecap="round" stroke-linejoin="round"/><line x1="594.6" y1="1821.9" x2="625.4" y2="1821.9" stroke="#128B86" stroke-width="4" stroke-linecap="round"/><text x="610" y="1857" font-family="Arial, Helvetica, sans-serif" font-size="17" font-weight="700" fill="#0B1F44" text-anchor="middle">IDC</text><line x1="665" y1="1813" x2="725" y2="1813" stroke="#128B86" stroke-width="5" stroke-linecap="round" marker-end="url(#arrow)"/><circle cx="780" cy="1768" r="20" fill="#083B7A"/><text x="780" y="1775" font-family="Arial, Helvetica, sans-serif" font-size="20" font-weight="700" fill="#FFFFFF" text-anchor="middle">5</text><polyline points="764.25,1810 771.25,1810 775.45,1800.2 780,1819.8 784.55,1806.5 790.5,1810 795.75,1810" fill="none" stroke="#083B7A" stroke-width="6" stroke-linecap="round" stroke-linejoin="round"/><text x="780" y="1857" font-family="Arial, Helvetica, sans-serif" font-size="17" font-weight="700" fill="#0B1F44" text-anchor="middle">aFRR energy</text><line x1="835" y1="1813" x2="895" y2="1813" stroke="#128B86" stroke-width="5" stroke-linecap="round" marker-end="url(#arrow)"/><circle cx="950" cy="1768" r="20" fill="#083B7A"/><text x="950" y="1775" font-family="Arial, Helvetica, sans-serif" font-size="20" font-weight="700" fill="#FFFFFF" text-anchor="middle">6</text><text x="950" y="1815.25" font-family="Arial, Helvetica, sans-serif" font-size="24" font-weight="700" fill="#128B86" text-anchor="middle">€</text><text x="950" y="1857" font-family="Arial, Helvetica, sans-serif" font-size="17" font-weight="700" fill="#0B1F44" text-anchor="middle">Dispatch</text>
</svg>
